<mxfile host="app.diagrams.net" modified="2023-11-06T05:55:23.475Z" agent="Mozilla/5.0 (Windows NT 10.0; Win64; x64) AppleWebKit/537.36 (KHTML, like Gecko) Chrome/119.0.0.0 Safari/537.36 Edg/119.0.0.0" etag="eM-VqpkB3p20znMpkaHu" version="22.0.8" type="device">
  <diagram name="Trang-1" id="nb2gRx0h8dr6ykz30R31">
    <mxGraphModel dx="1386" dy="785" grid="1" gridSize="10" guides="1" tooltips="1" connect="1" arrows="1" fold="1" page="1" pageScale="1" pageWidth="827" pageHeight="1169" math="0" shadow="0">
      <root>
        <mxCell id="0" />
        <mxCell id="1" parent="0" />
        <mxCell id="91Khs0d0tsEl92dWL8cP-2" value="Thông tin chuyên xe" style="strokeWidth=1;shadow=0;dashed=0;align=center;html=1;shape=mxgraph.mockup.containers.window;align=left;verticalAlign=top;spacingLeft=8;strokeColor2=#008cff;strokeColor3=#c4c4c4;fontColor=#666666;mainText=;fontSize=17;labelBackgroundColor=none;whiteSpace=wrap;" vertex="1" parent="1">
          <mxGeometry x="165" y="220" width="550" height="380" as="geometry" />
        </mxCell>
        <mxCell id="91Khs0d0tsEl92dWL8cP-3" value="" style="strokeWidth=1;shadow=0;dashed=0;align=center;html=1;shape=mxgraph.mockup.misc.rrect;rSize=0;strokeColor=#666666;" vertex="1" parent="1">
          <mxGeometry x="240" y="290" width="400" height="70" as="geometry" />
        </mxCell>
        <mxCell id="91Khs0d0tsEl92dWL8cP-6" value="NGÀY" style="strokeColor=inherit;fillColor=inherit;gradientColor=inherit;strokeWidth=1;shadow=0;dashed=0;align=center;html=1;shape=mxgraph.mockup.misc.rrect;rSize=0;fontSize=17;fontColor=#999999;whiteSpace=wrap;" vertex="1" parent="91Khs0d0tsEl92dWL8cP-3">
          <mxGeometry y="23.33625" width="200" height="23.33625" as="geometry" />
        </mxCell>
        <mxCell id="91Khs0d0tsEl92dWL8cP-7" value="Giờ" style="strokeColor=inherit;fillColor=inherit;gradientColor=inherit;strokeWidth=1;shadow=0;dashed=0;align=center;html=1;shape=mxgraph.mockup.misc.rrect;rSize=0;fontSize=17;fontColor=#999999;whiteSpace=wrap;" vertex="1" parent="91Khs0d0tsEl92dWL8cP-3">
          <mxGeometry x="200" y="23.333333333333336" width="200" height="23.333333333333336" as="geometry" />
        </mxCell>
        <mxCell id="91Khs0d0tsEl92dWL8cP-9" value="10/23/2014" style="strokeColor=inherit;fillColor=inherit;gradientColor=inherit;strokeWidth=1;shadow=0;dashed=0;align=center;html=1;shape=mxgraph.mockup.misc.rrect;rSize=0;fontSize=17;fontColor=#999999;whiteSpace=wrap;" vertex="1" parent="91Khs0d0tsEl92dWL8cP-3">
          <mxGeometry y="46.66375000000001" width="200" height="23.33625" as="geometry" />
        </mxCell>
        <mxCell id="91Khs0d0tsEl92dWL8cP-10" value="7h sáng" style="strokeColor=inherit;fillColor=inherit;gradientColor=inherit;strokeWidth=1;shadow=0;dashed=0;align=center;html=1;shape=mxgraph.mockup.misc.rrect;rSize=0;fontSize=17;fontColor=#999999;whiteSpace=wrap;" vertex="1" parent="91Khs0d0tsEl92dWL8cP-3">
          <mxGeometry x="200" y="46.66666666666667" width="200" height="23.333333333333336" as="geometry" />
        </mxCell>
        <mxCell id="91Khs0d0tsEl92dWL8cP-12" value="Trà vinh" style="strokeColor=inherit;fillColor=inherit;gradientColor=inherit;strokeWidth=1;shadow=0;dashed=0;align=center;html=1;shape=mxgraph.mockup.misc.rrect;rSize=0;fontSize=17;fontColor=#999999;whiteSpace=wrap;" vertex="1" parent="91Khs0d0tsEl92dWL8cP-3">
          <mxGeometry y="1.461250000000014" width="400" height="21.875000000000004" as="geometry" />
        </mxCell>
        <mxCell id="91Khs0d0tsEl92dWL8cP-4" value="Xuất phát" style="strokeColor=inherit;fillColor=inherit;gradientColor=inherit;strokeWidth=1;shadow=0;dashed=0;align=center;html=1;shape=mxgraph.mockup.misc.rrect;rSize=0;fontSize=17;fontColor=#999999;whiteSpace=wrap;" vertex="1" parent="1">
          <mxGeometry x="240" y="263.33" width="400" height="26.666666666666668" as="geometry" />
        </mxCell>
        <mxCell id="91Khs0d0tsEl92dWL8cP-19" value="" style="strokeWidth=1;shadow=0;dashed=0;align=center;html=1;shape=mxgraph.mockup.misc.rrect;rSize=0;strokeColor=#666666;" vertex="1" parent="1">
          <mxGeometry x="240" y="385" width="400" height="75" as="geometry" />
        </mxCell>
        <mxCell id="91Khs0d0tsEl92dWL8cP-22" value="DATE" style="strokeColor=inherit;fillColor=inherit;gradientColor=inherit;strokeWidth=1;shadow=0;dashed=0;align=center;html=1;shape=mxgraph.mockup.misc.rrect;rSize=0;fontSize=17;fontColor=#999999;whiteSpace=wrap;" vertex="1" parent="91Khs0d0tsEl92dWL8cP-19">
          <mxGeometry y="25" width="200" height="25" as="geometry" />
        </mxCell>
        <mxCell id="91Khs0d0tsEl92dWL8cP-23" value="Giờ" style="strokeColor=inherit;fillColor=inherit;gradientColor=inherit;strokeWidth=1;shadow=0;dashed=0;align=center;html=1;shape=mxgraph.mockup.misc.rrect;rSize=0;fontSize=17;fontColor=#999999;whiteSpace=wrap;" vertex="1" parent="91Khs0d0tsEl92dWL8cP-19">
          <mxGeometry x="200" y="25" width="200" height="25" as="geometry" />
        </mxCell>
        <mxCell id="91Khs0d0tsEl92dWL8cP-25" value="10/23/2014" style="strokeColor=inherit;fillColor=inherit;gradientColor=inherit;strokeWidth=1;shadow=0;dashed=0;align=center;html=1;shape=mxgraph.mockup.misc.rrect;rSize=0;fontSize=17;fontColor=#999999;whiteSpace=wrap;" vertex="1" parent="91Khs0d0tsEl92dWL8cP-19">
          <mxGeometry y="50" width="200" height="25" as="geometry" />
        </mxCell>
        <mxCell id="91Khs0d0tsEl92dWL8cP-26" value="10h sáng" style="strokeColor=inherit;fillColor=inherit;gradientColor=inherit;strokeWidth=1;shadow=0;dashed=0;align=center;html=1;shape=mxgraph.mockup.misc.rrect;rSize=0;fontSize=17;fontColor=#999999;whiteSpace=wrap;" vertex="1" parent="91Khs0d0tsEl92dWL8cP-19">
          <mxGeometry x="200" y="50" width="200" height="25" as="geometry" />
        </mxCell>
        <mxCell id="91Khs0d0tsEl92dWL8cP-28" value="Cần Thơ" style="strokeColor=inherit;fillColor=inherit;gradientColor=inherit;strokeWidth=1;shadow=0;dashed=0;align=center;html=1;shape=mxgraph.mockup.misc.rrect;rSize=0;fontSize=17;fontColor=#999999;whiteSpace=wrap;" vertex="1" parent="91Khs0d0tsEl92dWL8cP-19">
          <mxGeometry width="400" height="25" as="geometry" />
        </mxCell>
        <mxCell id="91Khs0d0tsEl92dWL8cP-20" value="Nơi Đến" style="strokeColor=inherit;fillColor=inherit;gradientColor=inherit;strokeWidth=1;shadow=0;dashed=0;align=center;html=1;shape=mxgraph.mockup.misc.rrect;rSize=0;fontSize=17;fontColor=#999999;whiteSpace=wrap;" vertex="1" parent="1">
          <mxGeometry x="240" y="360" width="400" height="25" as="geometry" />
        </mxCell>
        <mxCell id="91Khs0d0tsEl92dWL8cP-21" value="Số Chỗ Trống: 10" style="strokeColor=inherit;fillColor=inherit;gradientColor=inherit;strokeWidth=1;shadow=0;dashed=0;align=center;html=1;shape=mxgraph.mockup.misc.rrect;rSize=0;fontSize=17;fontColor=#999999;whiteSpace=wrap;" vertex="1" parent="1">
          <mxGeometry x="240" y="490" width="140" height="25" as="geometry" />
        </mxCell>
        <mxCell id="91Khs0d0tsEl92dWL8cP-36" value="SDT: 012345678" style="strokeColor=inherit;fillColor=inherit;gradientColor=inherit;strokeWidth=1;shadow=0;dashed=0;align=center;html=1;shape=mxgraph.mockup.misc.rrect;rSize=0;fontSize=17;fontColor=#999999;whiteSpace=wrap;" vertex="1" parent="1">
          <mxGeometry x="500" y="490" width="140" height="25" as="geometry" />
        </mxCell>
      </root>
    </mxGraphModel>
  </diagram>
</mxfile>
